<svg xmlns="http://www.w3.org/2000/svg" width="18" height="17.996" viewBox="0 0 18 17.996"><defs><style>.a{fill:#212121;}</style></defs><path class="a" d="M9,6.622a4.614,4.614,0,1,0,4.614,4.614A4.607,4.607,0,0,0,9,6.622Zm0,7.614a3,3,0,1,1,3-3,3.005,3.005,0,0,1-3,3Zm5.879-7.8A1.076,1.076,0,1,1,13.8,5.357,1.074,1.074,0,0,1,14.876,6.433Zm3.056,1.092a5.326,5.326,0,0,0-1.454-3.771A5.361,5.361,0,0,0,12.707,2.3c-1.486-.084-5.939-.084-7.425,0a5.353,5.353,0,0,0-3.771,1.45A5.343,5.343,0,0,0,.058,7.521c-.084,1.486-.084,5.939,0,7.425a5.326,5.326,0,0,0,1.454,3.771A5.368,5.368,0,0,0,5.282,20.17c1.486.084,5.939.084,7.425,0a5.326,5.326,0,0,0,3.771-1.454,5.361,5.361,0,0,0,1.454-3.771c.084-1.486.084-5.935,0-7.421ZM16.012,16.54A3.037,3.037,0,0,1,14.3,18.251c-1.185.47-4,.361-5.3.361s-4.124.1-5.3-.361A3.037,3.037,0,0,1,1.981,16.54c-.47-1.185-.361-4-.361-5.3s-.1-4.124.361-5.3A3.037,3.037,0,0,1,3.692,4.22c1.185-.47,4-.361,5.3-.361s4.124-.1,5.3.361a3.037,3.037,0,0,1,1.711,1.711c.47,1.185.361,4,.361,5.3S16.482,15.36,16.012,16.54Z" transform="translate(0.005 -2.238)"/></svg>