<?xml version="1.0" encoding="utf-8"?>
<!-- Generator: Adobe Illustrator 24.0.0, SVG Export Plug-In . SVG Version: 6.00 Build 0)  -->
<svg version="1.1" id="Layer_1" xmlns="http://www.w3.org/2000/svg" xmlns:xlink="http://www.w3.org/1999/xlink" x="0px" y="0px"
	 viewBox="0 0 70.4 59.6" style="enable-background:new 0 0 70.4 59.6;" xml:space="preserve">
<style type="text/css">
	.st0{fill:#010101;}
	.st1{fill:#442D9E;}
</style>
<polygon class="st0" points="8.2,47.7 16.4,59.6 0,59.6 "/>
<polygon class="st0" points="62.3,11.9 70.4,0 54.1,0 "/>
<polygon id="_x35_" class="st1" points="70.4,27.2 70.4,59.6 36.8,59.6 40.4,54.4 40.4,54.3 65.1,54.3 65.1,32.4 37.1,32.4 
	37.1,32.4 36.8,32.4 36.8,0 45.7,0 42.1,5.2 42.1,27.2 "/>
<polygon id="_x33_" class="st1" points="32.7,0 32.7,59.6 23.9,59.6 27.5,54.4 27.5,32.4 17.8,32.4 17.8,32.4 14.2,32.4 10.6,27.2 
	27.5,27.2 27.5,5.2 3.5,5.2 0,0 "/>
</svg>
