<?xml version="1.0" encoding="utf-8"?>
<!-- Generator: Adobe Illustrator 24.0.0, SVG Export Plug-In . SVG Version: 6.00 Build 0)  -->
<svg version="1.1" xmlns="http://www.w3.org/2000/svg" xmlns:xlink="http://www.w3.org/1999/xlink" x="0px" y="0px"
	 viewBox="0 0 69.54 59.6" style="enable-background:new 0 0 69.54 59.6;" xml:space="preserve">
<style type="text/css">
	.st0{fill:#212121;}
	.st1{fill:#010101;}
	.st2{fill:url(#_x35__1_);}
	.st3{fill:url(#_x33__1_);}
	.st4{opacity:0.5;fill:#212121;}
</style>
<g id="Layer_1">
	<g id="default">
		<polygon class="st0" points="8.18,47.73 16.35,59.6 0,59.6 		"/>
		<polygon class="st0" points="61.37,11.87 69.54,0 53.19,0 		"/>
		<polygon id="_x35_-" class="st0" points="69.54,27.16 69.54,59.6 36.84,59.6 40.38,54.39 40.38,54.31 65.14,54.31 65.14,32.44 
			37.08,32.44 37.08,32.41 36.84,32.41 36.84,0 45.67,0 42.13,5.21 42.13,27.16 		"/>
		<polygon id="_x33_-" class="st0" points="32.7,0 32.7,59.6 23.94,59.6 27.47,54.4 27.47,32.41 17.75,32.41 17.75,32.42 
			14.22,32.42 10.64,27.18 27.47,27.18 27.47,5.23 3.54,5.23 0,0 		"/>
	</g>
	<g id="hover">
		<polygon class="st1" points="8.18,47.73 16.35,59.6 0,59.6 		"/>
		<polygon class="st1" points="61.37,11.87 69.54,0 53.19,0 		"/>
		<linearGradient id="_x35__1_" gradientUnits="userSpaceOnUse" x1="53.193" y1="59.601" x2="53.193" y2="2.637535e-11">
			<stop  offset="0" style="stop-color:#58499E"/>
			<stop  offset="1" style="stop-color:#A23D97"/>
		</linearGradient>
		<polygon id="_x35_" class="st2" points="69.54,27.16 69.54,59.6 36.84,59.6 40.38,54.39 40.38,54.31 65.14,54.31 65.14,32.44 
			37.08,32.44 37.08,32.41 36.84,32.41 36.84,0 45.67,0 42.13,5.21 42.13,27.16 		"/>
		<linearGradient id="_x33__1_" gradientUnits="userSpaceOnUse" x1="16.3501" y1="59.6014" x2="16.3501" y2="4.393754e-04">
			<stop  offset="0" style="stop-color:#58499E"/>
			<stop  offset="1" style="stop-color:#A23D97"/>
		</linearGradient>
		<polygon id="_x33_" class="st3" points="32.7,0 32.7,59.6 23.94,59.6 27.47,54.4 27.47,32.41 17.75,32.41 17.75,32.42 
			14.22,32.42 10.64,27.18 27.47,27.18 27.47,5.23 3.54,5.23 0,0 		"/>
	</g>
</g>
<g id="Layer_2">
	<rect y="0" class="st4" width="69.54" height="59.6"/>
</g>
</svg>
