<svg xmlns="http://www.w3.org/2000/svg" width="17" height="13" viewBox="0 0 17 13"><defs><style>.a{fill:#212121;}.b,.d{fill:none;}.b{stroke:#000;stroke-width:0.3px;}.c{stroke:none;}</style></defs><g transform="translate(-1 -120.122)"><path class="a" d="M17,5.563V16.188a1.044,1.044,0,0,1-1.062,1.063H14.875V7.607L8.5,12.185,2.125,7.607V17.25H1.063A1.043,1.043,0,0,1,0,16.188V5.563A1.044,1.044,0,0,1,1.063,4.5h.354L8.5,9.635,15.583,4.5h.354A1.044,1.044,0,0,1,17,5.563Z" transform="translate(1 115.669)"/><g class="b" transform="translate(1 120.122)"><rect class="c" width="17" height="13" rx="1"/><rect class="d" x="0.15" y="0.15" width="16.7" height="12.7" rx="0.85"/></g></g></svg>