<svg xmlns="http://www.w3.org/2000/svg" width="17" height="14" viewBox="0 0 17 14"><defs><style>.a{fill:#212121;}.b,.d{fill:none;}.b{stroke:#000;stroke-width:0.3px;}.c{stroke:none;}</style></defs><g transform="translate(-1 -120.122)"><path class="a" d="M17,5.644V17.087a1.086,1.086,0,0,1-1.062,1.144H14.875V7.846L8.5,12.777,2.125,7.846V18.231H1.063A1.085,1.085,0,0,1,0,17.087V5.644A1.184,1.184,0,0,1,.305,4.83a1.015,1.015,0,0,1,.757-.33h.354L8.5,10.03,15.583,4.5h.354a1.019,1.019,0,0,1,.757.33A1.181,1.181,0,0,1,17,5.644Z" transform="translate(1 115.673)"/><g class="b" transform="translate(1 120.122)"><rect class="c" width="17" height="14" rx="1"/><rect class="d" x="0.15" y="0.15" width="16.7" height="13.7" rx="0.85"/></g></g></svg>